# xmcd
#
# Track frame offsets:
#	150
#	15401
#	30747
#	43943
#	54865
#	70726
#	85113
#	108676
#	141757
#	151012
#	164627
#	187093
#	205460
#	229260
#	238230
#	250342
#
# Disc length: 3561
#
# Revision: 2
# Processed by: cddbd v1.5.1PL0 Copyright (c) Steve Scherf et al.
# Submitted via: EasyCDDAExtractor 4.5.0.2
# Normalized: r0:TDELIM( - ),TSWAP
#
DISCID=de0de710
DTITLE=LOVE Volume 3 ALL TIme Romantic Hits
DYEAR=1900
DGENRE=
TTITLE0=BAY CIT ROLLERS - I ONLY WANNA BE WITH YOU
TTITLE1=NEIL SEDAKA - LOVE WILL KEEP US TOGETHER
TTITLE2=THE SUPREMES - STOP IN THE NAME OF LOVE
TTITLE3=GERRY and THE PACEMAKERS - FERRY CROSS THE MERSEY
TTITLE4=PETULA CLARK - THIS IS MY SONG
TTITLE5=TOM JONES - HELP ME MAKE IT THROUGH THE NIGHT
TTITLE6=ROSE ROYCE - IS IT LOVE THAT YOU ARE AFTER
TTITLE7=ROSE ROYCE - LOVE DON'T LIVE HERE ANYMORE
TTITLE8=GLADYS KNIGHT - EVERY BEAT OF MY HEART
TTITLE9=BRENDA LEE - YOU DON'T HAVE TO SAY YOU LOVE ME
TTITLE10=THREE DEGREES - LOVE TRAIN
TTITLE11=FREDA PAYNE - BAND OF GOLD
TTITLE12=BARRY RYAN - ELOISE
TTITLE13=THE SEARCHERS - LOVE PORTION No 9
TTITLE14=GERRY and THE PACEMAKERS - YOU'LL NEVER WALK ALONE
TTITLE15=CONTOURS - THE TRACKS OF MY TEARS
EXTD=
EXTT0=
EXTT1=
EXTT2=
EXTT3=
EXTT4=
EXTT5=
EXTT6=
EXTT7=
EXTT8=
EXTT9=
EXTT10=
EXTT11=
EXTT12=
EXTT13=
EXTT14=
EXTT15=
PLAYORDER=
